<svg width="725" height="571" viewBox="0 0 725 571" fill="none" xmlns="http://www.w3.org/2000/svg">
<ellipse cx="362.5" cy="246.5" rx="362.5" ry="246.5" fill="#7FB4E0"/>
<path d="M160.784 115.909L167.815 138.011H168.085L175.131 115.909H181.949L171.92 145H163.994L153.952 115.909H160.784ZM191.601 115.909V145H185.45V115.909H191.601ZM212.442 124.276C212.329 123.13 211.841 122.24 210.979 121.605C210.118 120.971 208.948 120.653 207.471 120.653C206.467 120.653 205.62 120.795 204.928 121.08C204.237 121.354 203.707 121.738 203.337 122.23C202.978 122.723 202.798 123.281 202.798 123.906C202.779 124.427 202.888 124.882 203.124 125.27C203.371 125.658 203.707 125.994 204.133 126.278C204.559 126.553 205.051 126.795 205.61 127.003C206.169 127.202 206.765 127.372 207.4 127.514L210.013 128.139C211.282 128.423 212.447 128.802 213.508 129.276C214.568 129.749 215.487 130.331 216.263 131.023C217.04 131.714 217.641 132.528 218.067 133.466C218.503 134.403 218.726 135.478 218.735 136.69C218.726 138.471 218.271 140.014 217.371 141.321C216.481 142.618 215.193 143.627 213.508 144.347C211.832 145.057 209.81 145.412 207.442 145.412C205.094 145.412 203.049 145.052 201.306 144.332C199.573 143.613 198.219 142.547 197.244 141.136C196.278 139.716 195.771 137.959 195.724 135.866H201.675C201.742 136.842 202.021 137.656 202.513 138.31C203.015 138.954 203.683 139.441 204.516 139.773C205.359 140.095 206.311 140.256 207.371 140.256C208.413 140.256 209.317 140.104 210.085 139.801C210.861 139.498 211.462 139.077 211.888 138.537C212.315 137.997 212.528 137.377 212.528 136.676C212.528 136.023 212.334 135.473 211.945 135.028C211.567 134.583 211.008 134.205 210.269 133.892C209.54 133.58 208.645 133.295 207.585 133.04L204.417 132.244C201.964 131.648 200.028 130.715 198.607 129.446C197.187 128.177 196.481 126.468 196.491 124.318C196.481 122.557 196.95 121.018 197.897 119.702C198.853 118.385 200.165 117.358 201.832 116.619C203.498 115.881 205.392 115.511 207.513 115.511C209.673 115.511 211.557 115.881 213.167 116.619C214.786 117.358 216.046 118.385 216.945 119.702C217.845 121.018 218.309 122.543 218.337 124.276H212.442ZM227.222 145H220.631L230.674 115.909H238.6L248.629 145H242.038L234.751 122.557H234.523L227.222 145ZM226.81 133.565H242.379V138.366H226.81V133.565ZM253.482 116.36H285.922V140.16H280.922V120.96H258.242V140.4H253.482V116.36ZM256.602 125.04H283.282V129.44H256.602V125.04ZM256.602 133.68H283.362V138.28H256.602V133.68ZM266.962 111.04H271.962V148.6H266.962V111.04ZM292.682 123.32H304.762V126.92H292.682V123.32ZM292.802 112.28H304.642V115.92H292.802V112.28ZM292.682 128.76H304.762V132.4H292.682V128.76ZM290.762 117.68H306.082V121.48H290.762V117.68ZM294.762 134.32H304.802V146.48H294.762V142.68H300.722V138.12H294.762V134.32ZM292.602 134.32H296.642V148.08H292.602V134.32ZM307.042 113.2H327.442V116.64H307.042V113.2ZM308.042 118.08H326.802V121.32H308.042V118.08ZM306.082 122.88H328.202V126.32H306.082V122.88ZM314.802 111.04H319.362V125.8H314.802V111.04ZM308.802 127.84H324.162V131.24H313.242V148.56H308.802V127.84ZM321.522 127.84H326.002V144.12C326.002 146.16 325.602 147.2 324.282 147.84C322.922 148.44 321.042 148.48 318.442 148.48C318.322 147.32 317.722 145.68 317.202 144.64C318.682 144.72 320.362 144.68 320.882 144.68C321.402 144.68 321.522 144.52 321.522 144.08V127.84ZM310.762 133.04H323.842V136.16H310.762V133.04ZM310.762 138.04H323.842V141.16H310.762V138.04ZM360.882 110.96L364.362 114.92C356.122 117.04 344.602 118.04 334.802 118.36C334.682 117.16 334.082 115.2 333.642 114.16C343.282 113.76 354.322 112.72 360.882 110.96ZM334.002 122.32H365.642V126.92H334.002V122.32ZM331.242 131.64H368.002V136.32H331.242V131.64ZM347.162 116.6H352.162V142.88C352.162 145.72 351.442 147 349.522 147.72C347.602 148.48 344.682 148.6 340.602 148.56C340.282 147.2 339.362 145.04 338.642 143.8C341.602 143.92 344.962 143.88 345.882 143.88C346.802 143.88 347.162 143.6 347.162 142.8V116.6ZM394.482 111H399.242V122.32H394.482V111ZM386.162 114.16H407.762V118.04H386.162V114.16ZM387.602 120.4H406.562V124.32H387.602V120.4ZM386.042 126.12H408.122V134.08H403.962V129.84H390.042V134.08H386.042V126.12ZM398.042 131.84H402.362V142.88C402.362 144.04 402.442 144.2 403.002 144.2C403.202 144.2 404.042 144.2 404.322 144.2C404.922 144.2 405.082 143.56 405.162 139.2C406.002 139.96 407.842 140.64 409.002 140.96C408.642 146.68 407.562 148.24 404.802 148.24C404.162 148.24 402.842 148.24 402.242 148.24C398.802 148.24 398.042 146.92 398.042 142.92V131.84ZM390.842 131.84H395.162V135.08C395.162 139.2 394.082 145 386.602 148.64C385.882 147.68 384.402 146.28 383.322 145.44C389.962 142.32 390.842 137.92 390.842 134.96V131.84ZM376.762 111.08L380.922 112.52C379.282 115.64 377.442 119.2 375.922 121.44L372.722 120.12C374.122 117.72 375.842 113.84 376.762 111.08ZM381.282 115.8L385.162 117.6C382.242 122.08 378.362 127.64 375.282 131.08L372.522 129.52C375.522 125.92 379.162 120.08 381.282 115.8ZM370.562 120.4L372.922 117.2C375.002 119.08 377.442 121.68 378.402 123.56L375.802 127.24C374.922 125.28 372.562 122.44 370.562 120.4ZM379.922 125.4L383.242 124C384.842 126.72 386.362 130.24 386.842 132.52L383.242 134.16C382.802 131.84 381.402 128.16 379.922 125.4ZM370.442 128.6C374.042 128.4 379.202 128.12 384.202 127.8L384.242 131.72C379.562 132.08 374.682 132.44 370.962 132.72L370.442 128.6ZM381.002 135.44L384.362 134.4C385.322 136.64 386.122 139.56 386.402 141.48L382.842 142.64C382.642 140.68 381.882 137.72 381.002 135.44ZM372.162 134.56L376.002 135.2C375.602 139.04 374.762 143 373.602 145.56C372.802 145.04 371.042 144.28 370.122 143.88C371.242 141.52 371.842 137.92 372.162 134.56ZM376.562 130.72H380.682V148.6H376.562V130.72ZM416.162 116.32C422.002 117 426.882 117.08 431.122 116.76C434.762 116.52 438.042 115.88 441.362 114.84L442.002 119.4C439.122 120.2 435.642 120.88 432.162 121.12C428.042 121.44 422.522 121.48 416.442 120.88L416.162 116.32ZM415.442 124.68C422.642 125.4 429.122 125.28 433.922 124.8C438.242 124.44 441.242 123.64 443.562 122.96L444.362 127.68C441.962 128.28 439.002 128.84 435.762 129.2C430.722 129.76 422.922 129.88 415.722 129.4L415.442 124.68ZM428.802 117.44C428.402 115.96 427.922 114.48 427.362 112.92L432.722 112.32C433.202 116.16 434.202 119.68 435.242 122.76C436.202 125.56 438.162 129.68 440.002 132.48C440.562 133.28 441.082 133.88 441.802 134.56L439.402 138.24C437.162 137.76 432.802 137.28 429.882 136.96L430.282 133.12C431.962 133.28 434.162 133.48 435.322 133.6C433.202 130.04 431.722 126.56 430.722 123.64C429.722 120.8 429.322 119.36 428.802 117.44ZM423.122 134C422.162 135.32 421.322 136.68 421.322 138.4C421.322 141.36 424.122 142.56 429.442 142.56C433.202 142.56 436.602 142.28 439.482 141.72L439.202 146.8C436.402 147.24 432.722 147.52 429.442 147.52C421.482 147.52 416.522 145.16 416.402 139.48C416.362 136.88 417.202 134.92 418.162 133.04L423.122 134ZM467.762 113.72C467.522 114.76 467.282 116.04 467.082 117.04C466.682 118.84 466.202 121.32 465.762 123.36C464.442 129 461.242 140.4 457.042 147.16L451.802 145.08C456.562 138.68 459.562 128.12 460.682 123.08C461.442 119.48 461.882 116.08 461.842 113.08L467.762 113.72ZM481.562 117.72C484.002 121.2 487.362 128.64 488.602 132.44L483.522 134.8C482.482 130.36 479.642 123.32 476.762 119.76L481.562 117.72ZM451.562 121.92C453.002 122 454.362 121.96 455.842 121.92C459.042 121.84 466.642 120.96 469.602 120.96C473.842 120.96 476.842 122.84 476.842 128.64C476.842 133.36 476.242 139.84 474.562 143.28C473.242 146.08 471.002 146.96 468.002 146.96C466.442 146.96 464.562 146.72 463.202 146.4L462.322 141.12C463.882 141.56 466.162 141.96 467.202 141.96C468.562 141.96 469.602 141.56 470.202 140.24C471.322 138 471.842 133.12 471.842 129.2C471.842 126 470.482 125.52 467.962 125.52C465.602 125.52 458.682 126.4 456.482 126.68C455.322 126.84 453.242 127.12 452.042 127.32L451.562 121.92ZM480.842 112.2C481.842 113.64 483.242 116.2 484.002 117.68L480.802 119.04C479.962 117.4 478.722 115.04 477.642 113.48L480.842 112.2ZM485.562 110.36C486.602 111.88 488.082 114.44 488.802 115.84L485.602 117.2C484.802 115.52 483.482 113.2 482.402 111.68L485.562 110.36ZM201.511 168.04H206.631V189C206.631 191.04 206.951 191.32 209.031 191.32C209.991 191.32 213.991 191.32 215.111 191.32C217.151 191.32 217.511 190.2 217.831 184.48C218.951 185.32 221.111 186.24 222.511 186.52C221.871 193.8 220.471 196.12 215.511 196.12C214.311 196.12 209.591 196.12 208.431 196.12C203.031 196.12 201.511 194.52 201.511 188.96V168.04ZM201.991 162.48L205.111 159C208.351 161.04 212.431 164.04 214.711 165.8L211.551 169.76C209.271 167.8 205.151 164.64 201.991 162.48ZM195.111 169.88L199.711 171.04C198.831 175.76 197.551 181.44 195.551 184.88L190.871 183.16C192.911 179.68 194.391 174.6 195.111 169.88ZM218.671 174.6L223.031 172.56C225.551 176.32 228.031 181.2 229.111 184.56L224.471 186.92C223.551 183.56 221.071 178.4 218.671 174.6ZM220.591 161.36L225.431 163.32C218.991 175.64 208.431 187.64 194.111 194.68C193.391 193.56 191.991 191.8 190.991 190.84C204.551 184.64 215.231 172.64 220.591 161.36ZM231.671 180.72H268.391V184.6H231.671V180.72ZM232.431 160.44H267.431V164.6H232.431V160.44ZM244.991 176.88L249.711 178.08C247.151 182.32 243.751 187.36 241.311 190.56L236.671 189.16C239.151 185.96 242.671 180.8 244.991 176.88ZM256.591 182.16L261.231 183.36C257.271 192.8 249.031 195.52 234.191 196.68C233.871 195.28 233.151 193.6 232.391 192.56C245.871 192 253.391 189.84 256.591 182.16ZM239.431 189.48L241.871 186.04C251.071 187.92 261.031 190.68 267.031 192.88L264.151 196.76C258.351 194.4 248.991 191.52 239.431 189.48ZM242.951 162.08H247.471V175.76H242.951V162.08ZM252.031 162.08H256.551V175.76H252.031V162.08ZM238.751 170.64V174.4H261.351V170.64H238.751ZM234.271 166.88H266.151V178.16H234.271V166.88ZM273.311 166.8C275.031 167 277.191 167.08 278.631 167.08C283.591 167.08 288.991 166.24 292.871 165L292.991 169.64C289.551 170.6 283.791 171.64 278.671 171.6C277.071 171.6 275.391 171.56 273.671 171.48L273.311 166.8ZM288.871 160.8C288.351 162.92 287.391 166.84 286.311 170.24C284.471 176 280.871 183.44 277.471 188.16L272.631 185.68C276.231 181.28 279.831 174.28 281.391 169.96C282.351 167.08 283.231 163.36 283.351 160.28L288.871 160.8ZM298.271 173.28C298.151 174.96 298.191 176.64 298.231 178.4C298.311 180.76 298.671 186.72 298.671 188.96C298.671 192.68 296.671 195.6 290.951 195.6C285.991 195.6 282.071 193.36 282.071 188.96C282.071 185.08 285.351 182.04 290.911 182.04C297.911 182.04 303.431 185.56 306.751 188.56L304.111 192.88C301.231 190.2 296.671 186.08 290.631 186.08C288.311 186.08 286.791 187.08 286.791 188.48C286.791 189.96 288.071 191 290.271 191C292.991 191 293.871 189.48 293.871 187.24C293.871 184.84 293.431 177.48 293.231 173.28H298.271ZM305.151 175.4C302.831 173.52 298.271 170.92 295.511 169.68L298.111 165.76C300.991 167 305.911 169.68 307.991 171.16L305.151 175.4ZM323.511 175.16H348.831V179.2H323.511V175.16ZM327.871 181.12H344.311V184.88H327.871V181.12ZM329.391 176.64L333.511 177.68C331.471 182.32 327.871 186.32 324.071 188.8C323.391 188 321.791 186.56 320.871 185.92C324.551 183.84 327.751 180.52 329.391 176.64ZM343.551 181.12H348.031C348.031 181.12 347.991 182.2 347.911 182.76C347.351 190.6 346.711 193.84 345.631 195.04C344.871 195.92 343.991 196.24 342.951 196.36C342.031 196.48 340.511 196.52 338.871 196.48C338.831 195.32 338.431 193.68 337.831 192.68C339.071 192.8 340.151 192.84 340.671 192.84C341.231 192.84 341.551 192.76 341.871 192.36C342.511 191.64 343.111 188.88 343.551 181.76V181.12ZM331.271 168.4V170.32H341.631V168.4H331.271ZM331.271 163.36V165.28H341.631V163.36H331.271ZM327.031 160.04H346.071V173.64H327.031V160.04ZM311.791 167.44H324.031V172H311.791V167.44ZM315.831 159.52H320.311V184.4H315.831V159.52ZM310.911 185.24C313.991 184.08 318.871 182.04 323.511 180.04L324.511 184.16C320.511 186.24 316.191 188.4 312.671 190.08L310.911 185.24ZM338.991 181.88L342.231 183.64C340.711 188.44 337.351 194 333.791 196.76C332.951 195.84 331.551 194.76 330.351 194.08C334.231 191.68 337.511 186.52 338.991 181.88ZM332.911 181.92L336.071 183.8C334.071 187.92 329.871 192.56 326.071 195C325.311 194 324.031 192.84 322.911 192.16C326.871 190.16 330.991 185.84 332.911 181.92ZM360.031 171.96H380.111V176.16H360.031V171.96ZM359.551 190.96H380.191V195.16H359.551V190.96ZM357.431 180.16H382.911V196.68H377.991V184.4H362.151V196.68H357.431V180.16ZM369.871 163.8C366.591 168.48 360.431 173.76 353.831 177.28C353.191 176.16 351.871 174.4 350.831 173.4C357.751 170.04 364.191 164 367.151 159.08H372.151C376.511 165.24 382.951 170.32 389.391 172.92C388.191 174.12 387.071 175.76 386.231 177.24C380.071 174 373.351 168.56 369.871 163.8ZM405.631 168.44C407.951 168.68 410.231 168.8 412.671 168.8C417.551 168.8 422.551 168.4 426.711 167.52V172.48C422.511 173.12 417.471 173.44 412.671 173.48C410.311 173.48 408.031 173.4 405.671 173.24L405.631 168.44ZM420.871 161.72C420.751 162.48 420.671 163.44 420.631 164.28C420.551 165.6 420.471 168.36 420.471 171.24C420.471 178.6 421.111 183.8 421.111 187.6C421.111 191.8 419.031 194.84 413.271 194.84C407.711 194.84 404.271 192.56 404.271 188.36C404.271 184.28 407.711 181.48 413.191 181.48C420.711 181.48 425.551 185.24 428.671 188.12L425.951 192.32C421.351 188.04 417.311 185.36 412.791 185.36C410.511 185.36 408.951 186.28 408.951 187.8C408.951 189.44 410.551 190.16 412.711 190.16C415.151 190.16 415.991 188.88 415.991 186.52C415.991 183.76 415.471 177.04 415.471 171.28C415.471 168.24 415.431 165.56 415.391 164.36C415.391 163.72 415.271 162.48 415.151 161.72H420.871ZM401.351 162.12C401.031 162.92 400.551 165 400.391 165.72C399.791 168.4 398.471 177.2 398.471 181.2C398.471 181.96 398.511 183 398.631 183.8C399.191 182.4 399.871 181.04 400.431 179.68L402.911 181.64C401.791 184.96 400.471 189 400.031 191.2C399.911 191.76 399.791 192.64 399.831 193.04C399.831 193.48 399.831 194.16 399.871 194.72L395.351 195.04C394.551 192.28 393.751 187.68 393.751 182.28C393.751 176.24 394.951 168.68 395.431 165.6C395.591 164.48 395.751 162.92 395.791 161.68L401.351 162.12ZM440.231 195.76C437.791 192.8 434.391 189.36 431.591 186.96L435.791 183.36C438.631 185.68 442.471 189.6 444.511 192.08L440.231 195.76ZM154.52 231.32H191.48V235.48H154.52V231.32ZM163.76 228.44H168.52V232.56C168.52 237 167.24 241.92 158.24 244.56C157.68 243.44 156.24 241.64 155.24 240.72C162.8 238.72 163.76 235.36 163.76 232.44V228.44ZM177.28 228.4H182.04V244.48H177.28V228.4ZM155.96 213.44H172.04V216.68H159.44V227.76H155.96V213.44ZM170.52 213.44H174.08V223.88C174.08 225.48 173.88 226.44 172.84 227C171.8 227.56 170.44 227.56 168.6 227.56C168.52 226.6 168.08 225.2 167.64 224.28C168.72 224.28 169.72 224.32 170.04 224.28C170.4 224.24 170.52 224.16 170.52 223.8V213.44ZM156.4 208.64L159.6 207.48C160.56 208.88 161.56 210.8 161.88 212.08L158.48 213.36C158.24 212.08 157.32 210.12 156.4 208.64ZM166.8 218.44L168.84 217.92C169.32 219.32 169.88 221.12 170.04 222.2L167.96 222.88C167.76 221.68 167.24 219.84 166.8 218.44ZM170.68 207.44L174.08 208.48C173.2 210.24 172.28 211.96 171.48 213.2L168.36 212.24C169.12 210.92 170.12 208.88 170.68 207.44ZM160.96 217.92L163.36 218.48C162.88 220.68 162.16 223.16 161.44 224.76C160.96 224.44 159.88 223.92 159.24 223.68C160.04 222.04 160.6 219.92 160.96 217.92ZM178.64 207.04L182.48 208.16C180.92 212.8 178.44 217.8 175.88 220.96C175.44 220.12 174.2 218.12 173.48 217.2C175.6 214.64 177.48 210.8 178.64 207.04ZM178.76 210.72H191.36V214.44H176.92L178.76 210.72ZM163 207.04H166.96V215.24H166.56V227.28H163.44V215.24H163V207.04ZM185.6 212.36L189.8 212.76C188.04 220.76 183.84 225.44 176.48 228.16C176.16 227.24 175.08 225.4 174.36 224.56C180.68 222.56 184.4 218.76 185.6 212.36ZM179.68 214.04C181.68 219.2 185.88 223.08 191.96 224.64C191.12 225.48 189.92 227.04 189.4 228.12C182.76 226 178.52 221.36 176.12 214.88L179.68 214.04ZM209.36 238.76H232.16V243.48H209.36V238.76ZM211 219.44H231.2V224.04H211V219.44ZM218.64 207.44H223.56V241.04H218.64V207.44ZM195 214.44H208.12V218.8H195V214.44ZM200.72 228.12L205.48 222.44V244.64H200.72V228.12ZM200.72 207.08H205.48V216.48H200.72V207.08ZM205 223.8C206.4 224.76 210.92 228.76 212 229.76L209.08 233.64C207.52 231.56 204.16 227.88 202.36 226.12L205 223.8ZM206.36 214.44H207.32L208.16 214.28L210.84 216.04C207.8 223.84 201.76 230.84 195.8 234.6C195.36 233.32 194.24 230.96 193.52 230.04C198.96 227.08 204.24 221.2 206.36 215.32V214.44ZM253.68 216.76V218.72H264.52V216.76H253.68ZM253.68 211.68V213.68H264.52V211.68H253.68ZM249.28 208.28H269.12V222.16H249.28V208.28ZM247.32 224H271.16V227.88H247.32V224ZM256.8 226.12H261.32V242.4L256.8 240.44V226.12ZM253.12 233.2C255.12 239.16 259.2 239.92 264.12 239.92C265.48 239.92 270.48 239.92 272.24 239.84C271.64 240.84 271.08 242.84 270.92 244.08H263.92C257.44 244.08 252.8 242.64 250.24 234.16L253.12 233.2ZM260.08 231.4H269V235.16H260.08V231.4ZM249.72 229.08L254.04 229.6C253.2 236.12 251.16 241.28 247.64 244.52C246.92 243.76 245.12 242.32 244.12 241.68C247.44 239 249.12 234.56 249.72 229.08ZM233.88 227.32C237.16 226.64 242 225.32 246.6 224.04L247.24 228.36C243.04 229.64 238.52 230.96 234.92 231.96L233.88 227.32ZM234.28 214.64H247V219.04H234.28V214.64ZM238.6 207.08H243V239C243 241.2 242.64 242.44 241.4 243.16C240.2 243.92 238.44 244.08 235.88 244.08C235.76 242.88 235.2 240.92 234.64 239.64C236.08 239.68 237.48 239.68 237.96 239.68C238.44 239.68 238.6 239.52 238.6 238.96V207.08ZM291.6 206.96L295.68 208.04C294.08 212.56 291.32 216.84 288.16 219.52C287.56 218.68 286.08 217.04 285.2 216.28C288 214.08 290.36 210.68 291.6 206.96ZM300.44 207.08L305.08 208.12C303.92 210.32 302.68 212.44 301.72 213.88L298 212.88C298.88 211.24 299.92 208.8 300.44 207.08ZM291.72 220.36H309.4V223.12H291.72V220.36ZM287.4 229.76H301.88V233.6H287.4V229.76ZM291.72 215.92H309.4V218.68H291.72V215.92ZM298.28 212.64H302.56V226.2H298.28V212.64ZM302.16 233H308.68V236.44H301.12L302.16 233ZM307 233H311.36C311.36 233 311.28 234.08 311.2 234.68C310.72 239.76 310.16 242.2 309.12 243.24C308.28 244.08 307.36 244.4 306.04 244.48C304.96 244.6 303.04 244.64 301 244.52C300.92 243.32 300.4 241.68 299.72 240.6C301.52 240.76 303.4 240.8 304.16 240.8C304.8 240.8 305.24 240.72 305.56 240.44C306.2 239.88 306.64 237.96 307 233.52V233ZM292.44 231.2L297.2 231.16C296.52 238.32 293.84 242.32 288.12 244.76C287.6 243.84 286 242.04 285.08 241.28C290.04 239.6 292.16 236.52 292.44 231.2ZM292.92 211H310.56V214.32H289.92L292.92 211ZM289.6 214.8L293.72 211.2V226.52H289.6V214.8ZM289.6 224.84H310.96V228.24H289.6V224.84ZM273.8 227.16C277.08 226.4 282 225.08 286.6 223.72L287.24 228.04C283.04 229.36 278.48 230.72 274.88 231.76L273.8 227.16ZM274.44 214.64H286.68V219.04H274.44V214.64ZM278.68 207.08H283.08V239.52C283.08 241.76 282.68 243 281.44 243.72C280.24 244.48 278.52 244.64 275.92 244.64C275.8 243.44 275.24 241.48 274.68 240.16C276.12 240.24 277.52 240.24 278 240.2C278.48 240.2 278.68 240.08 278.68 239.52V207.08ZM300.76 229.76H304.96C304.4 232.56 303.68 235.8 303.08 237.96L299.04 237.36C299.64 235.28 300.32 232.28 300.76 229.76ZM336.64 213.6C336.08 217.68 335.28 222.36 333.88 227.08C331.48 235.16 328.04 240.12 323.68 240.12C319.2 240.12 315.52 235.2 315.52 228.44C315.52 219.24 323.56 211.32 333.92 211.32C343.8 211.32 350.08 218.2 350.08 226.96C350.08 235.36 344.92 241.32 334.84 242.88L331.8 238.16C333.36 237.96 334.48 237.76 335.56 237.52C340.64 236.28 344.64 232.64 344.64 226.76C344.64 220.48 340.72 216 333.8 216C325.32 216 320.68 222.92 320.68 227.96C320.68 232 322.28 233.96 323.8 233.96C325.52 233.96 327.04 231.4 328.72 226C329.88 222.24 330.76 217.64 331.16 213.44L336.64 213.6ZM384.28 206.96L387.76 210.92C379.52 213.04 368 214.04 358.2 214.36C358.08 213.16 357.48 211.2 357.04 210.16C366.68 209.76 377.72 208.72 384.28 206.96ZM357.4 218.32H389.04V222.92H357.4V218.32ZM354.64 227.64H391.4V232.32H354.64V227.64ZM370.56 212.6H375.56V238.88C375.56 241.72 374.84 243 372.92 243.72C371 244.48 368.08 244.6 364 244.56C363.68 243.2 362.76 241.04 362.04 239.8C365 239.92 368.36 239.88 369.28 239.88C370.2 239.88 370.56 239.6 370.56 238.8V212.6ZM417.88 207H422.64V218.32H417.88V207ZM409.56 210.16H431.16V214.04H409.56V210.16ZM411 216.4H429.96V220.32H411V216.4ZM409.44 222.12H431.52V230.08H427.36V225.84H413.44V230.08H409.44V222.12ZM421.44 227.84H425.76V238.88C425.76 240.04 425.84 240.2 426.4 240.2C426.6 240.2 427.44 240.2 427.72 240.2C428.32 240.2 428.48 239.56 428.56 235.2C429.4 235.96 431.24 236.64 432.4 236.96C432.04 242.68 430.96 244.24 428.2 244.24C427.56 244.24 426.24 244.24 425.64 244.24C422.2 244.24 421.44 242.92 421.44 238.92V227.84ZM414.24 227.84H418.56V231.08C418.56 235.2 417.48 241 410 244.64C409.28 243.68 407.8 242.28 406.72 241.44C413.36 238.32 414.24 233.92 414.24 230.96V227.84ZM400.16 207.08L404.32 208.52C402.68 211.64 400.84 215.2 399.32 217.44L396.12 216.12C397.52 213.72 399.24 209.84 400.16 207.08ZM404.68 211.8L408.56 213.6C405.64 218.08 401.76 223.64 398.68 227.08L395.92 225.52C398.92 221.92 402.56 216.08 404.68 211.8ZM393.96 216.4L396.32 213.2C398.4 215.08 400.84 217.68 401.8 219.56L399.2 223.24C398.32 221.28 395.96 218.44 393.96 216.4ZM403.32 221.4L406.64 220C408.24 222.72 409.76 226.24 410.24 228.52L406.64 230.16C406.2 227.84 404.8 224.16 403.32 221.4ZM393.84 224.6C397.44 224.4 402.6 224.12 407.6 223.8L407.64 227.72C402.96 228.08 398.08 228.44 394.36 228.72L393.84 224.6ZM404.4 231.44L407.76 230.4C408.72 232.64 409.52 235.56 409.8 237.48L406.24 238.64C406.04 236.68 405.28 233.72 404.4 231.44ZM395.56 230.56L399.4 231.2C399 235.04 398.16 239 397 241.56C396.2 241.04 394.44 240.28 393.52 239.88C394.64 237.52 395.24 233.92 395.56 230.56ZM399.96 226.72H404.08V244.6H399.96V226.72ZM439.56 212.32C445.4 213 450.28 213.08 454.52 212.76C458.16 212.52 461.44 211.88 464.76 210.84L465.4 215.4C462.52 216.2 459.04 216.88 455.56 217.12C451.44 217.44 445.92 217.48 439.84 216.88L439.56 212.32ZM438.84 220.68C446.04 221.4 452.52 221.28 457.32 220.8C461.64 220.44 464.64 219.64 466.96 218.96L467.76 223.68C465.36 224.28 462.4 224.84 459.16 225.2C454.12 225.76 446.32 225.88 439.12 225.4L438.84 220.68ZM452.2 213.44C451.8 211.96 451.32 210.48 450.76 208.92L456.12 208.32C456.6 212.16 457.6 215.68 458.64 218.76C459.6 221.56 461.56 225.68 463.4 228.48C463.96 229.28 464.48 229.88 465.2 230.56L462.8 234.24C460.56 233.76 456.2 233.28 453.28 232.96L453.68 229.12C455.36 229.28 457.56 229.48 458.72 229.6C456.6 226.04 455.12 222.56 454.12 219.64C453.12 216.8 452.72 215.36 452.2 213.44ZM446.52 230C445.56 231.32 444.72 232.68 444.72 234.4C444.72 237.36 447.52 238.56 452.84 238.56C456.6 238.56 460 238.28 462.88 237.72L462.6 242.8C459.8 243.24 456.12 243.52 452.84 243.52C444.88 243.52 439.92 241.16 439.8 235.48C439.76 232.88 440.6 230.92 441.56 229.04L446.52 230ZM486.56 220.52L510.92 217.28L511.6 221.84L487.28 225.12L486.56 220.52ZM501.64 209.56L505.24 207.32C507.32 209.24 509.84 211.92 510.96 213.8L507.12 216.28C506.12 214.44 503.68 211.6 501.64 209.56ZM484.36 207.36L488.92 208.88C485.92 215.96 481.04 223.36 476.04 227.96C475.56 226.8 474.2 224.24 473.36 223.08C477.68 219.36 481.88 213.4 484.36 207.36ZM480.2 218.84L485.12 213.96L485.16 214.04V244.52H480.2V218.84ZM494.04 207.64H498.92C499.2 224.76 501.52 238.04 506.36 238.72C507.28 238.8 507.8 236.72 508.08 232.32C509 233.32 511.16 234.6 512.04 235.04C511 242.8 508.84 244.64 506.6 244.52C497.12 243.64 494.76 229.44 494.04 207.64ZM530.84 209.32H550.4V213.88H530.84V209.32ZM541 221.76H545.92V239.04C545.92 241.6 545.4 242.96 543.64 243.72C541.92 244.44 539.4 244.48 535.8 244.48C535.64 243.08 535 241 534.36 239.6C536.64 239.72 539.28 239.72 540 239.72C540.76 239.68 541 239.52 541 238.92V221.76ZM529.12 220.4H551.44V224.96H529.12V220.4ZM520.16 225.12L524.36 220.92L524.96 221.16V244.64H520.16V225.12ZM524.68 215.76L529.24 217.48C526.08 222.8 521.16 228.4 516.88 231.92C516.2 230.92 514.56 228.76 513.6 227.8C517.68 224.92 522.04 220.28 524.68 215.76ZM523.16 207.04L527.76 208.92C524.84 212.72 520.52 216.88 516.72 219.52C516.08 218.44 514.84 216.56 514.04 215.6C517.36 213.44 521.2 209.84 523.16 207.04ZM155.24 279.52H190.92V283.44H155.24V279.52ZM155.32 261.56H190.76V265.52H155.32V261.56ZM156.96 268.72H189.24V272.48H156.96V268.72ZM158.96 274.24H187.36V277.72H158.96V274.24ZM170.56 270.64H175.32V292.6H170.56V270.64ZM167.08 255H171.56V263.44H167.08V255ZM174.48 255H179.04V263.16H174.48V255ZM169.68 281.28L173.44 282.96C169.64 287.12 163.24 290.52 157.08 292.12C156.44 290.96 155.04 289.12 154 288.12C160.04 286.96 166.4 284.32 169.68 281.28ZM176.28 281.16C179.52 284.32 185.76 286.8 192 287.84C190.92 288.84 189.48 290.84 188.76 292.16C182.44 290.56 176.32 287.16 172.56 282.64L176.28 281.16ZM183.68 255.32L188.72 256.52C187.44 258.72 186.08 260.88 185.04 262.36L181.16 261.16C182.08 259.52 183.12 257.08 183.68 255.32ZM178.4 263.92L183.48 265.08C182.4 267 181.36 268.76 180.52 270.04L176.44 268.88C177.16 267.44 178 265.4 178.4 263.92ZM158.2 256.6L162.32 255.2C163.48 256.92 164.8 259.32 165.36 260.88L161 262.44C160.56 260.88 159.28 258.44 158.2 256.6ZM163.28 265.56L167.92 264.84C168.6 265.96 169.36 267.52 169.68 268.6L164.8 269.44C164.56 268.4 163.88 266.72 163.28 265.56ZM194.96 267.16H230.96V271.4H194.96V267.16ZM198.44 259.36H221.32V263.52H198.44V259.36ZM205.48 281.12H223.36V284.72H205.48V281.12ZM205.48 287.4H223.36V291.44H205.48V287.4ZM207.88 255.04H212.6V269.52H207.88V255.04ZM225.48 256.2L229.6 258.32C221.76 269.24 209.56 277.28 196.6 282.04C196.04 281 194.6 279 193.72 278.04C206.72 273.88 218.48 266.24 225.48 256.2ZM202.8 274.6H226.4V292.48H221.4V278.52H207.6V292.64H202.8V274.6ZM248.88 259.48H270.84V263.28H248.88V259.48ZM249.96 264.84H270V268.44H249.96V264.84ZM248.12 270.16H271.56V274.08H248.12V270.16ZM264.28 254.96L269.04 256.12C267.96 257.92 266.88 259.68 266.08 260.84L262.32 259.76C263.04 258.36 263.88 256.36 264.28 254.96ZM251.44 256.36L255.2 255.12C256.12 256.48 257.12 258.32 257.48 259.56L253.48 261C253.16 259.76 252.28 257.8 251.44 256.36ZM267.76 274.84L271.36 277.4C269.6 279.24 267.48 281.2 265.88 282.48L262.8 280.12C264.36 278.8 266.52 276.52 267.76 274.84ZM248.88 277.12L252.16 274.96C253.6 276.44 255.36 278.48 256.16 279.88L252.72 282.28C252 280.84 250.32 278.68 248.88 277.12ZM246.56 286.16C248.96 285.08 252.48 283.28 255.92 281.52L257.16 285.4C254.36 287.04 251.2 288.8 248.64 290.2L246.56 286.16ZM257.56 262.04H262.16V287.84C262.16 290 261.8 291.16 260.52 291.88C259.2 292.6 257.28 292.68 254.76 292.68C254.64 291.44 254.08 289.56 253.52 288.44C254.88 288.48 256.44 288.48 256.92 288.48C257.4 288.48 257.56 288.28 257.56 287.84V262.04ZM261.92 274.84C263.68 280.2 267.2 284.8 272.32 286.88C271.36 287.76 269.96 289.52 269.28 290.76C264.08 287.88 260.68 282.28 258.8 275.56L261.92 274.84ZM234.76 263.32H248V267.76H234.76V263.32ZM239.64 255.04H244V292.6H239.64V255.04ZM239.56 266.36L242.24 267.28C241.08 273.6 238.8 281.32 235.96 285.44C235.56 284.16 234.52 282.32 233.84 281.2C236.4 277.72 238.64 271.44 239.56 266.36ZM243.8 269.28C244.68 270.36 247.96 275.4 248.64 276.52L246.16 279.96C245.28 277.64 242.88 273.08 241.8 271.2L243.8 269.28ZM292.44 256.92C292.12 258.4 291.6 260.76 290.48 263.64C289.64 265.6 288.48 267.88 287.36 269.48C288.44 269 290.56 268.72 291.92 268.72C295.24 268.72 297.76 270.68 297.76 274.4C297.76 276.56 297.88 280.92 297.92 283.44H293.12C293.28 281.56 293.36 278.16 293.32 276C293.32 273.44 291.72 272.6 290.04 272.6C287.84 272.6 285.32 273.92 283.8 275.36C282.6 276.56 281.48 278 280.12 279.76L275.84 276.56C280.96 271.84 284.04 267.52 285.72 263.12C286.52 260.96 287.04 258.52 287.16 256.48L292.44 256.92ZM277.36 260.64C279.4 260.92 282.36 261.08 284.4 261.08C289.68 261.08 296.92 260.8 302.72 259.76L302.68 264.4C297.04 265.2 289 265.56 284.12 265.56C282.48 265.56 279.56 265.48 277.36 265.28V260.64ZM309.04 272C307.8 272.36 305.64 273.16 304.28 273.68C301.68 274.68 298.08 276.12 294.32 278.04C290.68 279.92 288.72 281.64 288.72 283.84C288.72 286.04 290.64 286.64 294.52 286.64C297.92 286.64 302.4 286.2 305.92 285.48L305.76 290.64C303.08 291 298.2 291.36 294.4 291.36C288.16 291.36 283.48 289.8 283.48 284.64C283.48 279.08 289.2 275.8 294 273.4C297.68 271.48 300.2 270.52 302.6 269.4C304.16 268.72 305.56 268.08 307.08 267.32L309.04 272ZM320.8 260.36C323.76 260.68 327.52 260.84 331.72 260.84C335.64 260.84 340.24 260.6 343.32 260.28V265.6C340.52 265.84 335.56 266.08 331.76 266.08C327.56 266.08 324.08 265.88 320.8 265.64V260.36ZM324.2 277.28C323.8 278.72 323.52 280 323.52 281.36C323.52 283.92 325.92 285.76 331.72 285.76C337.12 285.76 342.2 285.16 345.76 284.2L345.8 289.8C342.32 290.64 337.52 291.16 331.88 291.16C322.72 291.16 318.12 288.08 318.12 282.6C318.12 280.28 318.6 278.32 318.92 276.84L324.2 277.28ZM344.36 256.2C345.36 257.68 346.76 260.24 347.52 261.72L344.32 263.08C343.48 261.44 342.24 259.04 341.16 257.52L344.36 256.2ZM349.08 254.4C350.12 255.92 351.6 258.44 352.32 259.84L349.12 261.24C348.32 259.56 347 257.24 345.92 255.72L349.08 254.4ZM373.92 286.6H387.72V290.84H373.92V286.6ZM371.68 275.56H390.04V292.4H385.4V279.8H376.08V292.56H371.68V275.56ZM370.28 256.92H388.6V261.32H370.28V256.92ZM386.36 256.92H390.84C390.84 256.92 390.8 258.08 390.76 258.64C390.56 267 390.28 270.48 389.28 271.76C388.44 272.8 387.56 273.12 386.28 273.28C385.2 273.44 383.36 273.44 381.4 273.44C381.28 272.04 380.76 270.2 380 269C381.68 269.16 383.32 269.16 384.08 269.16C384.64 269.16 385.04 269.08 385.36 268.72C385.96 268.04 386.2 265.16 386.36 257.6V256.92ZM376 258.72H380.72C380.12 265.48 378.56 271.12 371.48 274.48C370.92 273.36 369.64 271.68 368.64 270.88C374.64 268.28 375.56 263.88 376 258.72ZM360.2 255.08L364.36 256.64C362.72 259.68 360.88 263.24 359.32 265.48L356.12 264.08C357.56 261.72 359.28 257.88 360.2 255.08ZM364.8 259.8L368.68 261.56C365.8 266.16 361.88 271.72 358.84 275.2L356.08 273.64C359.04 270 362.72 264.12 364.8 259.8ZM354.04 264.56L356.32 261.28C358.44 263.12 360.92 265.64 361.96 267.48L359.48 271.2C358.52 269.28 356.08 266.48 354.04 264.56ZM363.6 269.36L366.76 268.04C368.32 270.72 369.84 274.24 370.32 276.56L366.92 278.08C366.48 275.76 365.12 272.12 363.6 269.36ZM354 272.68C357.68 272.56 363.08 272.36 368.36 272.12L368.32 275.92C363.4 276.28 358.28 276.6 354.4 276.88L354 272.68ZM364.48 279.32L367.84 278.24C368.84 280.52 369.88 283.52 370.32 285.52L366.8 286.76C366.4 284.76 365.36 281.68 364.48 279.32ZM355.72 278.56L359.68 279.24C359.28 283.08 358.4 287.08 357.24 289.64C356.4 289.12 354.6 288.28 353.6 287.88C354.76 285.52 355.4 281.96 355.72 278.56ZM360.2 274.8H364.4V292.64H360.2V274.8ZM412.84 259.84C409.72 264.96 403.6 270.48 396.88 274.04C396.28 272.84 394.92 271.04 393.88 270.04C401 266.64 407.24 260.24 410 254.92H415.2C419.32 261.68 425.68 266.96 432.24 269.48C431 270.76 429.92 272.4 429.04 273.88C422.64 270.64 416.08 265.04 412.84 259.84ZM417.28 269.68H422.28V292.6H417.28V269.68ZM403.48 269.88H408.4V274.84C408.4 280.52 407.6 287.68 399.72 292.6C398.88 291.56 397 289.96 395.72 289.2C402.76 285 403.48 279.36 403.48 274.72V269.88ZM443.36 260.44C443.08 261.84 442.88 264.2 442.88 265.32C442.88 267.92 442.88 270.88 443.12 273.8C443.68 279.56 444.88 283.52 447.4 283.52C449.32 283.52 450.88 278.8 451.64 275.64L455.68 280.48C453 287.48 450.52 289.88 447.32 289.88C442.88 289.88 439.08 285.96 437.96 275.24C437.56 271.56 437.52 266.84 437.52 264.4C437.52 263.32 437.48 261.6 437.2 260.36L443.36 260.44ZM463.36 261.32C467.16 265.92 470.24 275.92 470.68 282.04L465.4 284.12C464.8 277.64 462.64 267.96 458.28 263L463.36 261.32ZM491.92 257.08C491.64 258.2 491.28 260 491.08 260.88C490.52 263.6 489.52 268.48 488.44 272.56C487 278.16 484.32 286.32 482.12 291.08L476.56 289.2C478.92 285.16 481.96 276.8 483.48 271.2C484.48 267.44 485.4 263.04 485.68 260.68C485.88 259.2 485.92 257.56 485.8 256.6L491.92 257.08ZM481.72 263.08C486.6 263.08 492.24 262.32 497.44 261.08V266.08C492.48 267.24 486.2 267.92 481.68 267.92C479.72 267.92 478.24 267.84 476.84 267.76L476.68 262.76C478.76 263 480.08 263.08 481.72 263.08ZM494.28 269.2C496.52 268.96 499.4 268.8 502 268.8C504.28 268.8 506.68 268.92 509 269.16L508.92 273.96C506.88 273.72 504.44 273.44 502.04 273.44C499.28 273.44 496.8 273.56 494.28 273.88V269.2ZM496.44 279.24C496.16 280.4 495.92 281.68 495.92 282.56C495.92 284.32 497.08 285.64 501.4 285.64C504.08 285.64 506.84 285.36 509.68 284.84L509.48 289.92C507.24 290.24 504.56 290.48 501.36 290.48C494.6 290.48 491 288.2 491 284.16C491 282.28 491.36 280.36 491.68 278.8L496.44 279.24ZM527.84 257.28C527.6 258.96 527.4 261.04 527.32 262.64C527.12 266.96 526.84 275.88 526.84 280.84C526.84 284.88 529.24 286.2 532.36 286.2C538.96 286.2 543.12 282.4 546.04 278.04L549.68 282.48C547.08 286.32 541.4 291.64 532.28 291.64C525.72 291.64 521.52 288.76 521.52 281.92C521.52 276.56 521.88 266.08 521.88 262.64C521.88 260.72 521.72 258.8 521.4 257.24L527.84 257.28ZM334.263 304.68C334.143 305.48 334.023 306.48 333.983 307.52C333.903 309.56 333.863 315.24 333.863 318.6C333.863 323 334.503 330.24 334.503 333.4C334.503 336.84 331.903 339.48 326.663 339.48C320.263 339.48 316.903 337.04 316.903 332.8C316.903 328.76 320.623 325.92 326.743 325.92C335.543 325.92 342.103 330.24 345.423 333.04L342.543 337.52C338.743 333.92 332.943 330.04 326.103 330.04C323.303 330.04 321.743 331.12 321.743 332.52C321.743 334.04 323.143 334.96 325.903 334.96C328.023 334.96 329.463 334.36 329.463 332.04C329.463 329.64 329.023 322.48 329.023 318.6C329.023 314.76 329.063 309.68 329.063 307.4C329.063 306.68 328.983 305.44 328.823 304.68H334.263ZM317.663 308.4C320.503 308.88 325.103 309.28 327.543 309.28C332.983 309.28 338.223 309 344.063 308.08L344.023 312.64C339.943 313.2 333.583 313.68 327.583 313.68C325.023 313.68 320.383 313.32 317.743 313L317.663 308.4ZM317.423 317.04C320.063 317.52 324.943 317.8 327.063 317.8C334.463 317.8 339.623 317.32 344.543 316.68L344.503 321.4C338.983 322.04 334.623 322.28 327.023 322.28C324.663 322.28 320.143 322.08 317.503 321.76L317.423 317.04ZM376.503 304.76C376.383 305.44 376.263 307.56 376.223 308.2C376.103 310.84 376.183 319 376.223 322.2L371.223 320.52C371.223 318.04 371.223 310.36 371.063 308.24C370.943 306.64 370.783 305.28 370.703 304.76H376.503ZM353.863 309.76C359.823 309.76 370.383 309.44 375.383 309.44C379.463 309.44 385.543 309.4 387.783 309.44L387.703 314.16C385.223 314.04 381.143 313.92 375.263 313.92C367.983 313.92 360.023 314.24 353.983 314.56L353.863 309.76ZM375.543 321.6C375.543 328.12 373.143 331.36 368.543 331.36C365.463 331.36 361.623 328.92 361.623 324.04C361.623 319.52 365.303 316.56 369.623 316.56C374.903 316.56 377.663 320.44 377.663 325.4C377.663 330.64 374.583 337.24 364.823 340L360.583 335.76C367.383 334.28 372.703 331.6 372.703 324.6C372.703 322 371.303 320.76 369.543 320.76C367.983 320.76 366.423 321.84 366.423 323.96C366.423 325.76 367.903 326.92 369.543 326.92C371.423 326.92 373.063 325.32 371.783 320.56L375.543 321.6ZM394.118 327.12C397.718 327.12 400.598 330 400.598 333.56C400.598 337.16 397.718 340.04 394.118 340.04C390.558 340.04 387.638 337.16 387.638 333.56C387.638 330 390.558 327.12 394.118 327.12ZM394.118 337.16C396.118 337.16 397.718 335.56 397.718 333.56C397.718 331.6 396.118 330 394.118 330C392.158 330 390.518 331.6 390.518 333.56C390.518 335.56 392.158 337.16 394.118 337.16Z" fill="white"/>
<path d="M358.612 570.459L279.345 480.11L436.959 479.311L358.612 570.459Z" fill="#7FB4E0"/>
</svg>
